<?xml version="1.0" encoding="UTF-8" standalone="no"?>
<svg
   width="745.00037"
   height="134.00002"
   viewBox="0 0 745.00037 134.00002"
   version="1.1"
   id="svg3"
   sodipodi:docname="IIT Bom.svg"
   inkscape:version="1.4.2 (f4327f4, 2025-05-13)"
   xmlns:inkscape="http://www.inkscape.org/namespaces/inkscape"
   xmlns:sodipodi="http://sodipodi.sourceforge.net/DTD/sodipodi-0.dtd"
   xmlns="http://www.w3.org/2000/svg"
   xmlns:svg="http://www.w3.org/2000/svg">
  <defs
     id="defs3" />
  <sodipodi:namedview
     id="namedview3"
     pagecolor="#ffffff"
     bordercolor="#000000"
     borderopacity="0.25"
     inkscape:showpageshadow="2"
     inkscape:pageopacity="0.0"
     inkscape:pagecheckerboard="0"
     inkscape:deskcolor="#d1d1d1"
     inkscape:zoom="1.5"
     inkscape:cx="359.33333"
     inkscape:cy="60.333333"
     inkscape:window-width="1366"
     inkscape:window-height="705"
     inkscape:window-x="-8"
     inkscape:window-y="-8"
     inkscape:window-maximized="1"
     inkscape:current-layer="svg3" />
  <text
     x="158.03935"
     y="31.00182"
     font-family="Arial, sans-serif"
     font-size="30.1793px"
     fill="#000000"
     id="text1"
     transform="scale(1.0013735,0.99862838)"
     style="stroke-width:1">भारतीय तंत्रज्ञान संस्था मुंबई</text>
  <text
     x="158.03935"
     y="77.50145"
     font-family="Arial, sans-serif"
     font-size="30.1793px"
     fill="#000000"
     id="text2"
     transform="scale(1.0013735,0.99862838)"
     style="stroke-width:1">भारतीय प्रौद्योगिकी संस्थान मुंबई</text>
  <text
     x="158.03935"
     y="124.00108"
     font-family="Arial, sans-serif"
     font-size="34.4906px"
     fill="#000000"
     id="text3"
     transform="scale(1.0013735,0.99862838)"
     style="stroke-width:1">Indian Institute of Technology Bombay</text>
  <g
     fill="#004f9f"
     id="g8"
     transform="matrix(0.29236072,0,0,0.28310852,0,2.9207715)"
     style="stroke-width:2.34165">
    <path
       d="m 229.3,0 h 14.27 c 7.53,0.44 15.07,0.9 22.55,1.93 l 8.1,33.54 a 237.8,237.8 0 0 1 30.61,8.21 l 25.23,-24.57 c 16.31,6.96 32.12,15.35 46.26,26.09 l -9.43,32.66 c 8.22,6.68 15.71,14.18 22.96,21.89 l 31.28,-12.03 c 11.31,13.67 20.86,28.76 29.07,44.48 l -23.91,24.77 c 3.74,8.84 7.12,17.84 9.53,27.14 11.31,1.5 22.65,2.81 33.9,4.7 3.6,16.68 4.86,33.74 5.28,50.75 v 1.31 l -32.94,11.09 c -0.82,9.63 -2.22,19.2 -4.12,28.67 9.38,6.95 19.26,13.27 28.08,20.95 -4.69,17.46 -11.99,34.11 -20.62,49.96 l -33.21,-7.32 c -5.92,9.33 -12.34,18.34 -19.25,26.97 l -19.77,-15.42 -25.96,-21.64 c 3.88,-4.79 8.04,-9.35 11.49,-14.47 16.46,-24.57 26.06,-54.01 25.57,-83.69 a 144.7,144.7 0 0 0 -25.56,-81.63 c -18.78,-27.49 -47.14,-48.36 -79.13,-57.7 -29.44,-8.73 -61.68,-8.28 -90.6,2.27 -30.6,10.72 -57.14,32.16 -74.7,59.35 -6.76,10.6 -12.01,22.15 -16.02,34.06 -5.78,17.28 -7.71,35.69 -6.79,53.83 2.97,33.1 17.17,64.73 38.59,89.99 l -45.12,36.69 c -6.7,-8.3 -13.59,-16.5 -19.28,-25.55 -0.73,-0.79 -1.27,-2.56 -2.68,-2.03 l -33.76,5.93 C 20.18,335.1 13.42,317.81 8.49,300.05 L 38.28,281.72 C 36.12,271.46 34.44,261.1 33.68,250.64 L 0.35,240.88 0,237.61 v -9.29 C 0.55,214.58 2.21,200.88 5.45,187.5 l 34.99,-4.32 c 2.92,-9.62 5.96,-19.23 9.98,-28.45 -8.01,-8.57 -16.28,-16.9 -24.47,-25.3 8.51,-16.69 18.68,-32.71 31.7,-46.27 l 30.64,14.6 C 95.55,90.37 103.31,83.5 111.11,76.68 L 100.36,43.95 c 15.59,-10.32 31.67,-20.22 49.15,-27.03 l 23.17,25.91 c 10.13,-3.62 20.75,-5.44 31.16,-7.87 3.38,-11.15 6.28,-22.46 9.43,-33.69 A 318.4,318.4 0 0 1 229.3,0 m -8.98,9.22 c -3.31,11.21 -6.12,22.56 -9.48,33.75 -13.81,2.1 -27.5,5.18 -40.62,10.05 -7.13,-7.63 -13.87,-15.62 -20.88,-23.38 -0.97,-0.71 -1.95,-2.61 -3.36,-1.62 -11.04,4.7 -21.33,10.98 -31.54,17.22 -1.14,0.9 -2.83,1.41 -3.4,2.84 3.4,10.61 7.17,21.12 10.35,31.81 -10.96,8.67 -21.31,18.12 -30.86,28.32 -10.28,-4.62 -20.43,-9.51 -30.58,-14.4 -9.11,10.39 -16.75,22 -23.17,34.21 7.88,8.54 16.44,16.42 24.2,25.07 -5.86,12.04 -10.03,24.87 -13.26,37.85 a 1401.3,1401.3 0 0 1 -34.73,4.37 c -3.11,12.81 -4.31,26.07 -3.92,39.24 l 33.39,9.84 c 0.13,12.86 2.13,25.62 5.2,38.08 0.07,1.23 1.31,3.08 -0.2,3.87 -9.37,6.2 -19.24,11.62 -28.61,17.83 3.66,11.8 8.08,23.38 13.57,34.46 0.71,0.93 0.97,2.58 2.29,2.82 11.41,-1.44 22.75,-4.51 34.09,-5.56 5.47,8.55 10.92,17.19 17.72,24.78 l 27.72,-22.41 c 1.36,-1.08 2.61,-2.29 3.81,-3.54 C 94.1,303.43 79.59,263.57 83.43,223.88 c 2.81,-35.19 18.42,-69.13 43.05,-94.38 21.59,-22.36 49.94,-38.26 80.45,-44.4 20.05,-4.34 40.93,-4.01 61.03,-0.21 34.48,6.58 66.3,25.61 88.84,52.46 20.29,24.02 33.08,54.37 35.74,85.72 3.81,39.12 -8.62,79.2 -32.75,110.1 10.38,8.97 20.98,17.69 31.99,25.88 5.92,-7.8 11.23,-16.03 16.25,-24.42 l 32.98,7.13 c 6.19,-11.83 11.6,-24.11 15.32,-36.95 -8.9,-7.38 -18.86,-13.34 -27.93,-20.5 3.34,-12.71 4.61,-25.85 5.95,-38.89 l 31.98,-10.59 a 244.7,244.7 0 0 0 -3.65,-38.39 l -33.72,-4.54 c -2.63,-12.78 -7.69,-24.8 -12.53,-36.85 l 23.41,-24.1 C 433.6,119.5 426.62,108.43 418.63,98.12 408.2,102 397.93,106.38 387.4,109.94 378.3,99.42 368.15,89.84 357.25,81.19 L 366.6,48.83 C 355.83,41.29 344.29,34.6 332.08,29.74 323.48,37.32 315.72,45.82 307.34,53.65 294.29,49.1 280.95,45.37 267.32,43.03 L 259.49,10.19 C 246.56,8.1 233.36,8.91 220.32,9.22 Z m 23.46,46.11 3.16,-0.13 c 0.04,4.9 -0.34,9.78 -0.43,14.68 l -3.3,0.08 z m -20.29,0.49 3.4,-0.29 c 1.87,3.06 3.76,6.11 5.91,8.98 l -0.35,-9.21 2.99,-0.01 c 0.14,4.88 0.6,9.74 0.55,14.62 -1.18,-0.35 -2.92,0.24 -3.67,-1 -1.97,-2.86 -3.67,-5.9 -5.7,-8.72 0.36,3.39 0.49,6.79 0.65,10.2 -1.61,0.11 -3.58,-0.17 -3.21,-2.27 z m 26.53,-0.44 3.15,0.54 c 2.02,3.09 3.19,6.63 4.54,10.05 0.59,-3.16 0.89,-6.36 1.12,-9.56 l 3.03,0.06 -1.26,14.49 a 10.2,10.2 0 0 1 -3.27,-0.3 c -1.72,-3.23 -2.94,-6.71 -4.77,-9.88 l -0.95,9.71 -2.82,-0.68 c 0.09,-4.83 0.85,-9.62 1.23,-14.43 z m -37.59,1.81 3.81,-0.71 c 2.32,4.64 4.55,9.33 7.07,13.87 l -3.5,0.47 -1.24,-2.7 c -1.64,0.16 -3.28,0.26 -4.89,0.59 -0.51,0.95 -0.9,1.95 -1.18,3 l -3.13,0.54 c 0.94,-5.03 2.11,-10.02 3.06,-15.06 m 1.47,8.68 3.23,-0.37 a 94,94 0 0 0 -2.3,-4.74 c -0.38,1.69 -0.67,3.4 -0.93,5.11 z m -11.37,-7.11 3.17,-0.55 2.74,14.49 -3.34,0.16 c -0.71,-4.73 -1.76,-9.39 -2.57,-14.1 z m 61.46,3.19 c 0.09,-4.97 6.92,-5.68 9.92,-2.87 1.32,1.14 1.3,3.04 1.85,4.56 -3.09,0.42 -3.97,-3.05 -6.64,-3.52 l -2.37,1.77 c 2.19,1.34 4.61,2.31 6.74,3.77 2.27,1.58 1.46,5.47 -0.86,6.64 -4.1,2.13 -10.3,-0.46 -10.09,-5.57 l 3.06,0.5 c 0.34,2.83 6.42,4.5 5.7,0.71 -2.44,-1.85 -7.15,-2.28 -7.31,-5.99 z m 13.41,0.29 0.35,-2.85 11.62,2.86 -0.45,2.78 -4.44,-0.98 a 176,176 0 0 1 -2.95,11.55 l -3.09,-1.12 c 1.05,-3.77 2.08,-7.56 2.9,-11.39 z m -89.34,-0.06 c 3.24,-0.72 6.51,-2.12 9.89,-1.53 4.01,1.84 5.04,7.33 3.79,11.19 -2.01,3.52 -6.58,3.44 -10.02,4.54 l -3.66,-14.2 m 3.85,1.74 2.31,9.11 c 1.2,-0.4 2.44,-0.76 3.59,-1.32 2.12,-1.87 1.17,-5.23 -0.15,-7.31 -1.39,-2.01 -3.85,-0.72 -5.75,-0.48 z m 99.09,-0.98 3.12,0.89 -4.36,14.02 -3.12,-1 z m -109.23,1.19 3.07,-0.81 c 1.41,4.63 3.16,9.15 4.61,13.77 l -3.14,0.93 c -2.74,-2.47 -5.51,-4.91 -8.39,-7.23 l 3.16,9.09 -2.89,1.18 -4.87,-13.72 c 1.09,-0.47 2.2,-0.91 3.31,-1.36 a 133.4,133.4 0 0 0 8.16,7.05 c -0.96,-2.98 -2.01,-5.93 -3.02,-8.9 z m 113.94,0.16 11.21,4.09 -0.95,2.72 -4.03,-1.51 c -1.64,3.62 -2.33,7.71 -4.51,11.04 l -2.44,-1 c 0.77,-3.85 2.56,-7.4 3.82,-11.09 l -4.01,-1.65 z m -150.9,6.8 c 0.7,-1.8 3.02,-1.7 4.55,-2.23 -0.76,1.33 -1.97,2.44 -2.43,3.93 0.86,0.99 1.89,1.81 2.91,2.63 l 3.18,-1.97 1.01,2.12 -2.33,1.33 1.79,3.06 c -1.7,1.2 -4.4,1.76 -4.6,4.23 2.13,-0.56 3.78,-2.43 5.98,-2.6 2.85,1.3 2.1,4.82 1.43,7.24 l 3.64,-0.08 -0.74,2.37 c -3.28,-0.56 -6.58,-0.54 -9.88,-0.3 l -0.03,-2.61 4.77,-0.49 0.4,-3.38 c -2.57,2.14 -6.84,2.72 -8.95,-0.33 -1.02,-3.37 5.35,-2.8 4.17,-5.81 -2.81,1.17 -5.35,2.89 -7.94,4.47 2.37,3.46 4.58,7.03 6.94,10.5 l -2.43,1.7 -1.51,-2.8 c -1.68,1.41 -3.36,3.48 -5.83,2.96 -2.84,-0.11 -4.66,-3.89 -3.04,-6.22 1.03,-1.63 3.32,-3.74 4.92,-1.56 l -2.71,2.29 4.54,-0.27 -3.22,-5.13 -8.19,5.91 c 2.3,2.99 4.65,5.93 6.99,8.89 2.23,-0.77 5.34,-0.72 6.2,1.98 0.41,4.23 -4.69,7.25 -8.46,6.04 l -0.07,-1.66 c 2.84,-0.1 5.75,-1.09 6.3,-4.24 -1.73,-0.22 -2.97,0.91 -4.26,1.83 -1.88,-1.84 -3.37,-4.01 -4.98,-6.08 l -2.66,2.2 0.94,3.02 a 183.7,183.7 0 0 1 -5.75,0.01 l 0.58,-3.06 -2.2,-2.71 c -0.96,1.26 -3.8,2.92 -3.74,0.19 8.43,-7.67 17.83,-14.33 27.79,-19.88 -1.43,-1.5 -4.11,-3.03 -3.08,-5.49 m -6.42,20.09 c -0.81,2.06 4.33,1.92 3.61,-0.1 -1.22,-0.67 -2.42,-0.63 -3.61,0.1 m -12.6,3.05 2.8,3.32 2.88,-2.62 c -0.82,-0.98 -1.61,-1.98 -2.49,-2.89 -1.12,0.65 -2.14,1.43 -3.19,2.19 z m 41.88,-25.07 3.09,-0.36 c 2.04,4.25 3.62,8.7 5.48,13.03 l -3.04,1.25 c -1.84,-4.64 -4.01,-9.15 -5.53,-13.92 z m 141.18,0.06 3.05,1.48 c -1.71,3.39 -3.35,6.83 -4.48,10.47 a 8.4,8.4 0 0 0 4.4,1.93 c 1.72,-3.18 2.96,-6.59 4.72,-9.74 0.95,-0.93 2.15,0.75 3.17,1 -1.69,3.14 -2.87,6.54 -4.68,9.63 -2.86,5.01 -12.42,0.62 -10.5,-4.86 1.1,-3.44 2.93,-6.59 4.32,-9.91 z m 11.29,8.42 1.57,-2.47 c 3.29,2.03 6.83,3.64 10.08,5.75 l -0.89,2.55 -4.07,-2.06 -5.8,10.35 c -0.91,-0.56 -1.8,-1.15 -2.67,-1.75 1.63,-3.54 3.76,-6.81 5.58,-10.25 z"
       id="path4"
       style="stroke-width:2.34165" />
    <path
       d="m 325.9,94.11 c 2.45,-4.14 5.28,-8.04 7.9,-12.06 l 9.09,6.05 -1.69,2.27 c -2.08,-1.4 -4.18,-2.76 -6.29,-4.09 l -1.41,2.42 5.76,3.57 -1.36,2.45 c -1.98,-1.23 -3.87,-2.61 -5.95,-3.66 -0.74,0.81 -1.37,1.71 -2.02,2.58 1.9,1.27 3.86,2.47 5.71,3.83 1.88,0.4 -0.15,3.41 -1.32,2.34 -2.96,-1.63 -5.91,-3.42 -8.42,-5.7 z m -201.44,-7.38 2.59,-2.13 1.81,2.46 -2.57,1.88 z m 222.89,9.52 c 4.21,-2.66 10.23,0.93 10.42,5.75 0.07,3.34 -2.21,6.2 -4.92,7.9 -4.15,2.44 -10.16,-1.07 -10.13,-5.86 -0.31,-3.26 2,-6.16 4.63,-7.79 m 1,3.26 c -1.41,1.12 -2.35,2.79 -2.71,4.54 a 4,4 0 0 0 4.39,3.56 c 2.58,-1.04 5.05,-3.71 4.45,-6.68 -0.75,-2.68 -4.24,-3.25 -6.13,-1.42 z m 3.74,14.79 c 3.57,-3.39 6.67,-7.24 10.41,-10.46 l 7.45,7.5 -2.42,1.78 -4.98,-4.99 -1.52,1.95 c 0.6,1.9 2.69,3.01 4,4.46 l -1.89,2.2 -4.34,-4.35 -4.53,4.34 z m -247.78,-3.92 c 1.39,-1.2 2.69,-3.96 4.88,-2.63 l -0.87,2.35 c 2.81,2.89 5.81,5.61 8.72,8.4 l -1.81,2.34 c -1.67,-1.67 -3.22,-3.49 -5.16,-4.85 a 41.4,41.4 0 0 0 -2.49,2.07 l 1.42,3.58 c -1.81,-0.28 -4.67,0.98 -5.73,-0.97 0.6,-2.68 3.47,-4.23 4.75,-6.62 a 47.3,47.3 0 0 0 -1.97,-2.28 l -7.52,8.5 9.83,8.04 -1.53,2.33 c -3.36,-2.61 -6.64,-5.32 -9.94,-8.01 l -2,2.25 c 3.33,2.54 6.62,5.14 10.05,7.54 l -1.32,2.44 -3.32,-2.3 c -0.5,2.59 -1.57,5.39 -4.1,6.62 -2.17,0.78 -4.91,0.18 -6.24,2.62 l -1.47,-2.21 3.36,-2.09 c 0.18,-1.17 1.11,-2.47 0.25,-3.57 -0.57,-1.8 -3.52,-2.58 -3.52,-0.02 l 3.56,1.76 c -2.23,1.82 -4.98,1.74 -6.32,-0.95 0.71,-1.75 1.2,-3.98 3.25,-4.65 1.63,-0.26 3.57,-0.25 4.76,1.08 1.65,1.55 1.19,4.01 1.49,6.03 1.85,-1.65 3.26,-4.13 2.04,-6.62 -1.12,-1.21 -2.49,-2.17 -3.75,-3.22 -1.11,0.51 -2.46,2.13 -3.32,0.42 3.78,-6.39 9.18,-11.74 14.02,-17.38 z m 123.21,15.18 c 3.41,-5.62 6.49,-11.56 11.13,-16.29 4.35,5.42 8.16,11.27 11.18,17.55 6.07,-6.48 14.97,-11.01 24.02,-8.77 -1.83,5.13 -2.95,10.48 -3.52,15.9 5.72,-3.59 12.97,-6.53 19.66,-3.93 -1.67,4.46 -2.82,9.08 -3.59,13.78 6.35,-2.13 14.28,-4.6 20.19,-0.09 -3.34,4.18 -6.54,8.56 -8.05,13.77 5.8,-2.21 12.54,-3.02 18.35,-0.41 1.78,0.73 2.98,2.27 3.89,3.9 -10.36,4.18 -14.13,15.44 -19.79,24.07 -3.64,5.98 -9.48,10.47 -16.21,12.41 1.98,1.57 4.08,3.05 5.67,5.05 3.1,3.62 4.83,8.32 8.6,11.37 2.87,2.67 7.08,2.18 10.67,2.91 -1.76,6.62 -7.19,11.48 -12.76,15.04 -9.19,5.77 -20.82,5.22 -30.83,2.08 -2.22,-0.62 -3.97,-2.14 -5.63,-3.66 -3.04,5.41 -9.43,6.71 -14.89,8.29 -4.32,9.43 -5.16,20.35 -3.02,30.45 5.04,-1.22 10.08,-2.67 15.32,-2.69 9.13,-0.42 17.19,4.76 26.08,5.83 3.63,0.58 7.3,0.13 10.92,-0.25 l 21.2,35.88 c -1.65,3.51 -3.74,7.19 -3.3,11.21 0.41,3.1 3.27,4.84 5.25,6.93 h -68.02 c -4.46,3.03 -9.54,5.62 -15.12,5.05 -4.55,-0.04 -8.4,-2.57 -12.1,-4.9 -4.56,-0.77 -9.23,-0.02 -13.84,-0.04 -17.67,0 -35.35,0 -53.02,-0.01 1.18,-2.13 3.33,-4.26 2.7,-6.91 -1.06,-4.23 -4.05,-7.57 -6.39,-11.14 9.65,-12.66 19.73,-24.98 29.7,-37.39 10.02,1.01 20.18,0.18 29.96,-2.12 5.37,-1.21 10.95,-1.22 16.35,-0.2 -1.56,-10.2 -0.88,-20.8 3.01,-30.42 -3.67,-1.25 -7.43,-2.36 -10.76,-4.36 -2.25,-1.38 -3.95,-3.44 -6.01,-5.05 -8.21,2.34 -16.65,5.86 -25.38,3.86 -9.26,-2.34 -18.61,-7.96 -22.38,-17.14 3.05,-1.92 6.38,-3.79 8.09,-7.12 2.33,-4.42 5.46,-8.34 9.21,-11.64 -4.27,-1.42 -8.4,-3.58 -11.35,-7.06 -5.61,-6.46 -6.88,-15.38 -11.93,-22.2 -1.87,-2.99 -4.96,-4.83 -7.79,-6.78 3.04,-7.58 12.3,-8.56 19.19,-6.39 -1.41,-4.52 -3.99,-8.5 -7.26,-11.89 -1.84,-1.38 0.55,-2.76 1.87,-3.14 6.81,-2.11 14.34,0.29 19.33,5.2 -0.31,-5.72 -2.2,-11.13 -4.04,-16.5 7.87,-2.3 16.45,0.74 21.96,6.6 1.03,-6.18 2.52,-12.58 0.62,-18.75 8.66,-0.5 17.79,2.79 22.86,10.11 m 10.87,-7.55 c -2.36,2.49 -4.46,5.24 -6.04,8.3 -6.71,12.95 -10.3,27.97 -7.66,42.5 1.15,6.09 3.17,12.41 7.62,16.93 2.12,1.72 4.72,4 7.67,3.06 4.02,-1.85 6.71,-5.69 8.25,-9.73 5.17,-13.06 5.25,-27.9 0.95,-41.22 -2.28,-7.18 -5.06,-14.65 -10.79,-19.84 m -27.53,2.25 c -0.66,6.43 -1.34,12.86 -2.56,19.21 -1.5,9.4 -3.78,19.32 -0.37,28.58 2.9,9.51 10.24,18.67 20.75,19.66 -7.12,-8.54 -9.8,-19.9 -9.24,-30.83 0.62,-7.86 2.44,-15.57 5.08,-22.99 -1.26,-6.65 -7.09,-12.15 -13.66,-13.63 m 41.03,12.1 c 3.38,10.47 5.76,21.58 4.3,32.61 -0.76,8.42 -3.73,16.66 -8.88,23.4 1.42,0.56 3,1.48 4.41,0.32 7.43,-3.75 11.93,-11.61 13.24,-19.62 3.16,-15.36 -2.85,-31.29 2.07,-46.44 -6.37,0.31 -11.26,5.14 -15.14,9.73 m -62.69,-0.34 c 1.79,10.58 0.52,21.41 2.64,31.95 1.37,7.2 4.94,13.91 9.92,19.25 4.89,5.17 12.12,7.73 19.18,7.28 -5.99,-3.98 -12.14,-8.42 -15.2,-15.19 -5.37,-10.64 -4.11,-22.9 -2.49,-34.28 -3.29,-4.55 -7.79,-9.81 -14.05,-9.01 m 80.86,9.93 c 0.64,12.66 1.76,26.15 -4.26,37.83 -2.09,4.56 -5.99,7.76 -9.48,11.2 7.23,-0.63 13.68,-5.14 17.22,-11.39 5.96,-9.77 6.6,-21.46 8.01,-32.51 0.41,-4.33 1.53,-8.6 1.24,-12.97 -4.93,0.88 -10.27,3.32 -12.73,7.84 m -98.84,0.66 c 1.41,3.23 3.49,6.16 4.56,9.54 2.72,9.06 4.73,18.49 9.24,26.88 4.91,8.43 14.12,14.65 24.1,14.26 -3.77,-2.67 -7.81,-5.05 -10.91,-8.53 -8.43,-8.88 -11.7,-21.41 -11.7,-33.4 -2.61,-5.67 -9.08,-9.3 -15.29,-8.75 m 114.38,7.1 c -1.47,7.18 -2.11,14.57 -4.1,21.66 a 43,43 0 0 1 -14.15,20.95 c 7.56,-0.23 13.35,-5.78 17.44,-11.61 5.17,-6.58 6.85,-14.93 9.07,-22.8 1.14,-4.31 3.39,-8.18 5.36,-12.14 -4.87,-0.58 -9.7,1.12 -13.62,3.94 m -126.31,9.1 c 1.63,2 3.46,3.82 4.96,5.92 4.79,7.19 6.19,16.34 12.24,22.73 4.44,4.72 11.21,6.2 17.47,5.79 -3.6,-2.77 -7.34,-5.48 -10.08,-9.16 -5.09,-6.3 -6.39,-14.5 -8.99,-21.94 -3.54,-4.57 -10.45,-5.75 -15.6,-3.34 m 138.51,5.97 c -3.55,3.07 -3.96,8.03 -6.21,11.92 -4.07,7.15 -9.66,13.5 -16.62,17.95 a 23.8,23.8 0 0 0 19.76,-7.92 c 4.61,-5.11 7,-11.67 10.42,-17.54 1.73,-3.02 3.92,-5.75 5.81,-8.68 -4.79,-1.01 -9.63,1.12 -13.16,4.27 m -65.36,28.82 c -6.92,1.06 -12.39,6.42 -15.18,12.61 -2.85,6.27 2.25,13.77 8.73,14.8 4.19,0.97 8.26,-0.76 12.12,-2.14 2.38,0.45 4.42,2.3 6.95,2.48 6.48,1.51 14.57,-3.26 14.6,-10.35 -0.16,-6.06 -4.33,-11.32 -9.21,-14.55 -5.23,-3.57 -11.94,-3.98 -18.01,-2.85 m -43.36,5.25 c -7.95,2.91 -9.06,12.83 -15.9,17.03 9.13,3.06 19.25,2.22 28.37,-0.46 3.72,-1.44 8.36,-2.69 10.09,-6.7 1.99,-4.03 3.92,-8.14 6.68,-11.73 -9.73,0.13 -19.82,-1.23 -29.24,1.86 m 69.98,-1.38 c 2.43,4.91 5.29,9.84 5.63,15.45 0.39,1.82 -0.07,4.31 1.81,5.43 10.54,5.44 24.1,8.25 34.97,2.18 -2.23,-2.1 -4.94,-3.65 -6.96,-5.98 -3.56,-4.17 -6.08,-9.21 -10.2,-12.9 -1.93,-1.81 -4.65,-2.44 -7.22,-2.56 -6.04,-0.18 -12.03,-0.98 -18.03,-1.62 m -49.28,26.26 c 3.66,-1.47 2.45,-5.64 2.28,-8.74 -3.86,1.24 -1.95,5.74 -2.28,8.74 m -5.65,-5.39 0.02,7.99 3.15,-1.11 c -0.01,-2.69 -0.04,-5.37 -0.15,-8.06 l -3.02,1.18 m -5.05,0.78 a 146.6,146.6 0 0 0 -0.02,9.14 c 0.98,-0.57 3.16,-0.51 2.8,-2.21 0.11,-2.36 0.02,-4.72 0,-7.07 l -2.78,0.14 m -23.16,1.52 c 0.95,1.64 2.46,2.81 3.99,3.89 l 0.12,-3.43 -4.11,-0.46 m 17.36,-0.31 c -0.21,2.83 -0.19,5.67 0.2,8.48 l 3.22,-0.78 c -0.02,-2.7 -0.11,-5.4 -0.44,-8.08 l -2.98,0.38 m -10.9,0.86 -0.05,4.66 3.3,1.31 -0.01,-5.98 -3.24,0.01 m 5.62,-0.13 v 6.91 l 3,0.29 v -7.41 l -3,0.21 m 30.28,1.39 0.13,3.18 2.58,2.51 -0.06,-4.79 -2.65,-0.9 m 37.08,0.87 a 214.7,214.7 0 0 0 0.06,6.71 c 0.94,-0.88 1.99,-1.67 2.77,-2.71 0.21,-1.75 0.02,-3.52 -0.07,-5.27 l -2.76,1.27 m 9.38,0.1 c -0.06,1.45 -0.33,3.08 0.29,4.45 0.97,0.76 2.05,1.36 3.11,2.01 l 0.2,-5.81 c -1.18,-0.27 -2.66,-2.32 -3.6,-0.65 m -40.7,0.69 -0.16,6.13 3.01,1.85 c 0.1,-2.57 0.11,-5.14 0.06,-7.7 l -2.91,-0.28 m 12.35,1.17 c -0.03,3.08 -0.19,6.16 -0.34,9.24 l 4.21,0.14 0.02,-9.8 -2.16,-1.13 -1.73,1.55 m 6.72,-0.11 -0.12,9.25 3.89,-0.59 c 0.05,-3.11 0.13,-6.25 -0.42,-9.32 l -3.35,0.66 m 6.26,-0.93 -0.01,8.87 3.52,-1.01 -0.02,-8.16 -3.49,0.3 m -19.65,0.68 c -0.01,2.73 0.02,5.47 0.13,8.2 l 3.74,0.87 c 0.05,-2.91 0.05,-5.83 0.04,-8.75 l -3.91,-0.32 m 40.96,0.33 c 0.04,1.82 -0.1,3.66 0.24,5.47 l 3.36,0.85 -0.03,-5.28 -3.57,-1.04 m 21.2,3.74 c 2.47,0.19 4.24,-1.56 5.72,-3.27 -2.23,0.47 -5.51,0.23 -5.72,3.27 m -15.18,-1.84 -0.04,4.55 3.17,0.89 c 0.08,-1.79 0.1,-3.58 0.08,-5.36 l -3.21,-0.08 m 5.68,0.55 0.07,4.73 2.81,-0.52 0.01,-4.14 -2.89,-0.07 m 5.39,-0.22 -0.13,3.99 2.41,-0.65 -0.23,-3.65 -2.05,0.31 m -51.67,10.74 c -4.45,9.54 -4.98,20.54 -2.99,30.78 0.34,2.52 3.48,3.08 5.54,3.41 -0.96,-5.4 -2.02,-10.85 -1.74,-16.37 0.05,-6.05 1.96,-11.85 3.63,-17.6 l -4.44,-0.22 m 3.02,36.91 c 0.21,10.72 -1.3,21.37 -1.18,32.09 3.74,-1.61 7.17,-3.95 11.13,-5.04 5.13,-1.59 10.57,-1.61 15.9,-1.55 15.45,0.17 30.33,5.95 45.84,5.32 -5.09,-10.54 -11.88,-20.19 -17.73,-30.33 -7.28,0.71 -14.56,-0.63 -21.35,-3.24 -10.46,-4.3 -23.08,-3.49 -32.61,2.75 m -28.11,-3.05 c -9.05,2.21 -18.43,2.54 -27.7,2.04 l -20.13,25.25 c -1.68,2.05 -3.29,4.16 -4.65,6.45 15.67,0.68 30.81,-4.49 46.38,-5.25 10.22,-1.14 20.78,0.73 29.56,6.2 l 1.44,-31.53 c -7.24,-4.99 -16.62,-5.12 -24.9,-3.16 m -39.96,35.9 c -4.72,0.51 -9.47,0.3 -14.2,0.47 2.25,1.99 5.35,1.43 8.11,1.43 12.39,-0.82 24.64,-3 36.95,-4.58 6.98,-0.7 14.16,-0.79 20.97,1.12 3.2,0.87 6.12,2.5 9.25,3.55 -0.32,-1.31 -1.22,-2.27 -2.44,-2.79 -5.66,-3.13 -12.24,-4.16 -18.64,-4.19 -13.52,-0.26 -26.65,3.53 -40,4.99 m 69.9,0.96 c 0.43,0.9 0.98,1.73 1.65,2.49 6.52,-4.5 14.44,-6.88 22.37,-6.58 15.2,-0.29 29.81,5.85 45.02,4.93 l 1.96,-1.15 c -15.53,0.58 -30.51,-4.52 -45.91,-5.53 -8.63,-0.44 -17.89,0.69 -25.09,5.84 m -69.08,2.34 c -4.1,0.46 -8.25,0.4 -12.31,1.16 3.13,0.64 6.34,0.48 9.51,0.43 15.97,-1.06 31.77,-6.04 47.87,-3.97 4.5,0.36 8.68,2.23 13.01,3.35 -2.73,-3.19 -7.11,-4.01 -11.02,-4.81 -15.81,-2.37 -31.39,2.55 -47.06,3.84 m 80.71,-2.68 c -3.32,1.24 -7.22,2.34 -9.12,5.61 4.68,-1.2 8.8,-4.01 13.62,-4.79 14.64,-3.43 29.2,1.94 43.76,3.01 a 22.5,22.5 0 0 0 9.3,-0.71 c -12.57,0.68 -24.69,-3.27 -37.08,-4.58 -6.83,-0.17 -13.89,-0.78 -20.48,1.46 m -91.68,6.21 c 5.51,1.64 11.4,1.48 17.1,1.24 9.14,-0.28 17.92,-3.3 27.05,-3.7 7.61,-0.09 15.03,1.87 22.27,4.05 l 1.05,-2.26 c -6.36,-2.94 -13.42,-4.14 -20.4,-4.04 -15.8,0.52 -31.19,5.55 -47.07,4.71 m 75.35,-5.16 c -3.18,3.94 -7.17,8.1 -7.27,13.46 0.57,3.15 4.25,4.11 7.03,3.83 2.92,0.01 7.5,-0.27 8.02,-3.93 -0.74,-5.2 -3.99,-9.84 -7.78,-13.36 m 20.17,1.94 c -3.8,1.17 -8.36,1.95 -10.74,5.48 3.69,-1.12 7.27,-2.61 11.08,-3.34 10.92,-2.34 22.16,-1.06 33.09,0.48 5.68,1.05 11.4,2.24 17.21,1.77 1.36,0.14 2.52,-0.58 3.34,-1.59 -18.13,1.29 -35.94,-7.15 -53.98,-2.8 M 186,317.21 c -8.04,1.31 -16.24,1.09 -24.31,0.18 l 1.21,1.16 c 11.64,2.12 23.45,0.11 35.04,-1.34 9.58,-1.18 19.14,0.65 28.43,2.85 l -0.45,-1.98 c -5.39,-1.96 -11.09,-3.06 -16.78,-3.61 -7.83,-0.61 -15.48,1.55 -23.14,2.74 m 68.09,-0.9 c -2.72,0.95 -5.96,1.36 -7.81,3.83 7.56,-1.11 14.95,-3.7 22.7,-3.28 12.09,-0.63 23.94,2.71 36,2.44 1.51,-0.11 3.28,-0.01 4.43,-1.2 -4.09,-0.17 -8.22,0.08 -12.26,-0.73 -14.15,-2.31 -28.95,-5.14 -43.06,-1.06 m -58.17,3.04 c -11.17,1.65 -22.57,2.95 -33.81,1.16 l -0.02,2.13 44.91,0.01 c 6.36,0.22 12.71,-0.85 19.05,0.1 -2.28,-1.76 -5.22,-2 -7.93,-2.58 -7.29,-1.52 -14.82,-1.42 -22.2,-0.82 m 56.96,1.48 c -1.49,0.29 -2.85,0.96 -4.15,1.72 l 60.86,0.01 0.87,-1.49 c -5.55,0 -11.13,0.43 -16.64,-0.4 -13.53,-1.96 -27.51,-3.07 -40.94,0.16 z m 121.49,-204.68 7.73,9.21 -2.49,1.7 c -0.83,-1.05 -1.61,-2.14 -2.6,-3.03 -3.19,2.21 -5.97,4.93 -9.03,7.31 l -2.16,-2.46 9.07,-7.6 -2.73,-3.33 z m -3.06,19.43 c 3.95,-2.93 7.91,-5.86 12.03,-8.55 l 6.33,9 -2.53,1.22 c -1.84,-1.68 -2.65,-4.96 -5.05,-5.65 -2.76,2.13 1.67,4.77 2.6,6.88 l -2.34,1.73 a 164.1,164.1 0 0 0 -4.09,-5.7 l -2.69,2.16 4.5,5.94 -2.13,2.15 z m -288.98,3.79 c 0.68,-1.27 1.71,-2.28 2.96,-2.99 l -0.09,3.46 c 1.77,1.51 3.64,3.11 4.22,5.48 l 5.66,-0.72 -0.24,2.49 c -3.78,0.78 -7.68,0.77 -11.52,0.97 -0.32,-2.28 1.6,-2.87 3.36,-3.45 a 23.3,23.3 0 0 0 -3.03,-2.31 c -2,1.62 -2.81,4.33 -4.13,6.49 3.87,1.88 7.66,3.91 11.43,5.99 l -1.44,2.07 c -2.12,-0.63 -3.98,-1.88 -6.01,-2.73 l -1.4,2.5 a 83.4,83.4 0 0 1 -1.55,-1.73 c 2.45,-2.14 -1.3,-2.74 -2.36,-3.86 -0.58,1.14 -1.17,2.27 -1.67,3.46 1.86,1.65 4.1,3.03 5,5.49 l 5.64,-1.48 -0.11,2.64 c -3.71,1.18 -7.61,1.53 -11.45,1.98 -0.3,-2.3 1.82,-2.98 3.42,-3.91 l -3.94,-1.81 -2.59,5.8 -1.66,-1.38 c 3.09,-7.83 7.12,-15.27 11.5,-22.45 z m 298.22,9.58 c -1.36,-6.92 9.57,-12.07 13.75,-6.2 2.26,2.76 1.64,6.7 -0.93,9.01 l -1.54,-2.69 c 1.22,-2.13 0.77,-5.33 -1.99,-5.83 -2.84,0.26 -6.91,2.31 -6.04,5.75 0.23,2 2.58,2.34 4.21,2.13 l 1.68,3.01 c -3.93,1.38 -8.57,-0.92 -9.14,-5.18 z m -309.22,-1.31 1.69,-2.88 2.56,1.65 -1.55,2.67 z m 315.76,9.52 11.88,-5.77 1.36,2.81 -4.82,2.6 2.33,4.63 4.81,-2.32 1.49,2.88 c -4.27,2.3 -8.68,4.31 -13.04,6.42 l -1.66,-2.73 5.88,-2.95 -2.34,-4.85 -5.95,2.96 c -0.28,-1.24 -2.04,-3.15 0.06,-3.68 z m 4.69,13.35 13.71,-5.37 1.08,3.06 c -1.87,3.14 -4.56,5.73 -6.64,8.74 2.91,-1.12 5.76,-2.43 8.77,-3.29 l 1.29,2.62 -13.91,5.37 -0.98,-3.18 a 201.5,201.5 0 0 0 6.93,-8.53 98.2,98.2 0 0 0 -8.69,3.46 z M 64.26,177.43 66,175.67 c 0.53,0.93 1,1.9 1.41,2.9 3.68,1.36 7.48,2.38 11.06,3.98 l -0.53,2.6 c -4.14,-1.35 -8.21,-2.9 -12.38,-4.16 l -2.17,8.26 2.31,0.79 c 0.03,-2.46 1.05,-5.85 4.13,-5.56 2.73,-0.1 7.29,3.7 4.21,6.08 -1.69,-1.27 -3.24,-4.29 -5.7,-3.15 -1.03,4.36 4.56,3.88 7.15,5.15 l -0.39,2.56 -3.19,-0.76 c -0.01,2.16 -0.52,4.92 -3.07,5.38 -3.55,1.23 -6.79,-2.6 -5.27,-5.97 l 1.82,-0.57 c 0.38,1.58 0.18,4.39 2.64,4.14 1.89,0.11 1.62,-2.34 1.19,-3.5 -2.08,-1.01 -4.42,-1.3 -6.66,-1.82 a 193,193 0 0 1 -2.15,8.52 266.5,266.5 0 0 0 12.49,2.65 l -0.4,2.73 c -4.23,-0.75 -8.42,-1.72 -12.65,-2.51 l -0.67,3.42 c 2.56,0.43 5.16,0.76 7.67,1.47 0.85,2.59 -4.73,6.44 -4.5,1.89 l -3.61,-0.53 -0.55,4.12 12.76,1.34 -0.55,2.54 c -4.25,-0.03 -8.45,-0.76 -12.67,-1.14 l -0.01,3.68 12.49,0.63 0.07,2.76 -12.75,-0.65 -0.37,3.57 c 4.25,0.09 8.5,-0.04 12.74,-0.34 l 0.14,2.83 c -0.73,0 -2.18,-0.02 -2.91,-0.03 1.55,2.71 3.1,6.3 1.08,9.19 -0.93,1.47 -2.74,0.87 -4.17,0.98 -1.52,0.52 -3.32,2.18 -4.83,0.7 -0.64,-1.54 -0.38,-3.26 -0.52,-4.87 l -1.24,0.17 0.02,7.82 c 4.35,0.03 8.67,-0.54 12.99,-1.01 l -0.11,2.9 -12.39,1.17 0.21,2.95 c 4.28,-0.32 8.5,-1.27 12.79,-1.39 1.74,3.58 -2.81,2.69 -4.7,3.33 1.7,2.23 6.57,3.77 4.55,7.14 -1.34,-1.24 -2.62,-2.54 -3.84,-3.89 -0.4,3.62 -4.06,4.02 -6.88,4.78 l -0.66,2.27 -1.48,-0.48 c -1.09,-3.57 -0.94,-7.4 -2.1,-10.96 -0.95,1.31 -2.28,5.38 -3.95,2.26 1.47,-2.06 3.25,-3.91 4.39,-6.2 -2.25,1.34 -4.19,3.12 -6.07,4.93 l -1.3,-2.51 6.63,-4.25 c -0.29,-7.04 -0.63,-14.1 -0.3,-21.14 -1.97,1.66 -3.86,3.41 -5.72,5.2 l -1.43,-2.44 c 3.15,-2.49 8.47,-4.03 7.67,-9.03 -2.17,0.04 -5.45,0.06 -5.96,-2.71 -1.72,-5.98 4.16,-10 8.29,-13.05 a 126.7,126.7 0 0 1 3.41,-13.45 c -2.4,-0.06 -6.12,-0.13 -6.28,-3.33 -0.11,-4.78 4.85,-7.07 9.03,-6.62 m -7.2,6.28 c 1.61,0.86 3.4,1.08 5.2,1.1 l 1.32,-4.67 c -2.88,-0.62 -5.84,0.51 -6.52,3.57 m -5.34,28.41 c -0.01,2.22 2.66,1.84 4.14,2.11 0.41,-3.28 0.93,-6.55 1.41,-9.82 -2.31,2.06 -5.82,4.18 -5.55,7.71 m 5.37,17.15 0.61,3.05 2.96,-0.07 c 0.46,1.86 -0.88,5.07 1.65,5.67 0.27,-2 -0.87,-4.86 1.77,-5.62 0.35,1.5 -0.13,3.63 1.73,4.27 2.54,-2.05 0.07,-5.23 -1.39,-7.1 -2.41,-0.47 -4.89,-0.19 -7.33,-0.2 m 1.69,22.66 c -0.03,1.4 0.22,2.79 0.37,4.18 1.84,-0.37 3.82,-0.42 5.49,-1.35 0.15,-1.25 -0.46,-2.41 -0.76,-3.58 -1.71,0.19 -3.44,0.3 -5.1,0.75 z m 344.4,-70.6 c 4.31,-2.01 10.09,0.66 10.28,5.69 1.26,7.74 -11.7,11.35 -14.7,4.22 -2.1,-3.84 0.18,-8.91 4.42,-9.91 m 2.01,2.83 c -2.23,0.4 -4.89,2.25 -4.15,4.85 1.16,5.49 11.48,2.26 9.25,-2.98 -0.85,-1.98 -3.23,-2.42 -5.1,-1.87 z m -4.15,14.15 c 4.83,-0.89 9.63,-1.93 14.46,-2.88 l 0.26,3.44 c -3.84,0.52 -7.64,1.25 -11.35,2.35 0.49,2.23 1.2,4.46 1.22,6.77 l -2.51,0.69 z"
       id="path5"
       style="stroke-width:2.34165" />
    <path
       d="m 408.38,208.41 c 2.89,-0.75 6.56,-0.88 8.78,1.48 2.07,1.98 2.25,5.27 1.44,7.87 -2.2,4.55 -9.06,5.67 -12.87,2.52 -3.55,-3.4 -2.51,-10.66 2.65,-11.87 m 1,3.13 c -2.74,0.54 -3.9,4.06 -1.97,6.11 2.81,2.22 8.1,1.17 8.97,-2.59 0,-3.66 -4.19,-4.6 -7,-3.52 z m -1.02,12.92 c 3.39,-1.51 8.07,-1.31 10.51,1.81 2.86,3.53 1.53,10.62 -3.72,10.81 -0.5,-2.81 2.28,-4.5 2.45,-7.11 -1.33,-3.86 -7.36,-4.08 -9.52,-0.96 -1.29,2.33 0.35,4.79 2.72,5.37 L 410.51,231 h 2.72 l 0.31,6.18 -8.28,0.31 1.14,-3.07 c -2.59,-2.97 -1.68,-8.27 1.96,-9.96 z m -3.03,18.03 c 5.48,1.54 9.98,-2.2 14.63,-4.36 l 0.06,3.8 -6.1,2.56 a 212.5,212.5 0 0 0 5.8,3.02 l -0.19,3.57 c -2.99,-1.39 -5.65,-3.37 -8.61,-4.79 -1.89,-0.41 -3.82,-0.48 -5.73,-0.68 z m -1.91,24.2 c -0.53,-3.36 0.34,-6.73 1.04,-10 4.76,0.92 9.59,1.42 14.33,2.45 -0.76,3.12 -0.55,6.59 -2.09,9.46 -1.56,2.31 -4.49,1.3 -6.23,-0.2 -2.21,1.81 -6.2,1.26 -7.05,-1.71 m 2.99,-6.44 c -0.23,2.44 -1.31,6.32 2.48,6 0.46,-1.79 0.87,-3.59 1.27,-5.39 l -3.75,-0.61 m 6.12,1.08 c -0.13,2.23 -1.21,5.23 1.89,5.59 0.44,-1.77 0.85,-3.55 1.22,-5.33 z m -8.12,10.19 c 5.18,-1.72 12.59,2.35 10.77,8.47 -1.02,7.11 -11.82,7.02 -14.6,1.26 -1.66,-3.53 0.04,-8.44 3.83,-9.73 m -0.12,3.57 c -1.88,1.3 -2.12,4.47 -0.07,5.74 2.33,1.71 6.79,2.35 8.08,-0.91 1.59,-4.39 -4.89,-6.79 -8.01,-4.83 z m -186.64,0.73 c 1.84,-0.64 5.5,-0.83 4.54,2.18 -1.68,-0.44 -4.89,0.59 -4.54,-2.18 z m 26.46,1.61 5.48,-2.02 1.02,2 -5.08,1.99 z m 7.71,-2.23 5.02,0.07 -0.23,2.33 c -1.89,-0.29 -4.38,0.05 -4.79,-2.4 z m 7.58,0.14 5.43,1.03 -0.23,2.29 -5.48,-1.14 z m -49.61,3.75 c -0.52,-3.07 3.07,-2.7 5.07,-3.06 l 1.24,1.73 a 48.8,48.8 0 0 1 -6.31,1.33 z M 224.03,278 c 0.34,-3.61 4.71,-0.17 6.63,0.32 -1.59,2.84 -4.53,0.58 -6.63,-0.32 z m -160,2.01 12.18,-3.17 c 0.8,2.29 -0.03,3.66 -2.53,3.56 0.65,2.04 1.94,4.26 1.02,6.43 -0.57,1.63 -2.17,2.49 -3.45,3.49 -0.99,-0.95 -1.69,-3.67 -3.48,-2.61 -3.04,1.09 -0.45,4.38 0.03,6.38 4.03,-1.54 8.12,-2.92 12.21,-4.27 l 0.49,2.59 c -3.83,1.74 -7.95,2.77 -11.85,4.34 l 1.32,3.24 11.74,-4.73 1.07,2.58 -7.81,3.17 2.35,5.34 c 2.87,-0.78 3.83,-3.74 4.96,-6.13 l 2.06,0.99 c -1.41,2.77 -2.41,7.43 -6.27,7.31 -4.34,0.34 -2.84,-7.23 -7.14,-6.42 1.28,3.53 2.92,6.91 4.32,10.4 2.57,-1.26 5.51,-2.61 7.66,0.1 l 2.23,-5.71 2.43,1.01 c -1.56,3.84 -3.44,7.55 -5.58,11.11 l -2.08,-1.07 a 132.4,132.4 0 0 0 1.06,-4.26 36,36 0 0 0 -4.32,1.34 l 3.5,6.76 11.26,-6.38 0.87,2.63 c -3.43,2.29 -7.15,4.11 -10.71,6.21 l 1.54,2.59 10.84,-6.66 1.42,2.51 -5.31,3.23 c 0.92,2.44 3.31,1.11 4.98,2.02 -0.25,1.76 0.14,4.35 -1.52,5.46 -2.13,-2.34 -4.75,-0.26 -5.65,2.01 1.53,-0.95 4.94,0.42 2.54,2 -2.67,2.12 -4.74,-1.27 -5.24,-3.56 1.32,-1.71 2.95,-3.13 4.79,-4.26 l -1.45,-2.55 -3.62,1.94 0.38,3.28 -1.85,-0.73 c -5.65,-8.5 -9.98,-17.8 -14.13,-27.11 -1.37,0.86 -2.59,2.16 -4.27,2.39 -2.87,-0.08 -4.23,-3.44 -3.93,-5.9 0.22,-2.77 2.56,-4.57 4.54,-6.19 -1.57,-4.94 -3.21,-9.9 -4.25,-14.98 l 0.43,-1.8 2.22,2.08 m 0.43,2.8 0.62,3.2 c 2.38,-1.35 5.32,-1.89 7.13,0.67 1.56,-2.04 -0.04,-3.96 -1.26,-5.62 l -6.49,1.75 m 1.99,14.4 c -1.51,1.52 -4.82,3.74 -2.81,6.11 1.44,1.94 3.21,-0.62 4.63,-1.29 z m 136.93,-18.25 c 0.91,-1.44 2.87,-1.15 4.31,-1.61 l 0.29,2.51 c -1.51,-0.22 -3.76,0.85 -4.6,-0.9 z m 63.07,-1.7 4.06,0.29 0.15,2.19 -4.15,-0.37 z m -77.13,1.24 h 3.38 l 0.08,2.22 -3.62,0.03 z m 6.79,-0.07 c 1.78,0.43 5.07,-1.06 5.27,1.68 -1.56,1.03 -3.6,0.49 -5.36,0.73 z m 77.33,-0.25 c 1.8,0.22 3.6,0.53 5.37,1.01 l -0.79,1.83 -4.8,-0.69 z m 7.71,3.32 c -0.79,-3.29 4.72,-3.14 4.63,-0.06 z m -36.12,0.99 a 23.4,23.4 0 0 1 9.31,-2.05 l -0.24,2.06 c -2.58,0.37 -5.13,0.93 -7.57,1.85 z m 12.18,-2.21 5.08,0.72 -0.38,2.21 -4.68,-0.6 z m -45.09,1.03 c 1.73,0.07 3.87,-0.95 5.35,0.25 -0.1,2.38 -3.42,1.49 -5.01,2.04 z m 7.89,-0.46 c 3.29,0.19 6.51,0.97 9.49,2.4 l -1.62,1.64 c -2.62,-0.67 -5.2,-1.5 -7.88,-1.85 z m 45.11,0.57 4.69,0.95 -0.32,2.23 -5.22,-1.11 z m -60.62,1.19 c 2.15,-0.21 4.98,-1.62 5.94,1.2 -1.9,0.43 -3.81,0.75 -5.73,0.99 z m -19.13,0.83 7.92,0.36 0.45,1.91 c -2.92,0.36 -5.85,0.15 -8.77,0.01 z m 11.08,-0.02 c 2.2,0.18 5.96,-1.79 6.04,1.72 l -5.99,0.59 z m 75.46,1.42 0.75,-2.15 5.4,0.66 -0.25,2.3 z m 9.78,-1.05 c 2.26,0.06 4.5,0.46 6.76,0.7 l 0.35,2.08 c -2.76,-0.08 -5.52,-0.29 -8.24,-0.72 z m -27.51,1.64 6.29,0.03 -0.19,2.24 c -1.96,0.02 -3.92,0.01 -5.87,-0.01 z m 144.12,-0.49 13.99,4.87 -1.49,4.26 c -3.61,-0.31 -7.21,-0.84 -10.84,-0.84 a 219.3,219.3 0 0 1 9.13,5.63 l -1.41,4.28 a 322.9,322.9 0 0 1 -13.93,-4.85 l 1.02,-2.83 9.32,3.24 c -2.73,-2.05 -5.69,-3.77 -8.55,-5.62 l 1.2,-2.95 10.25,1.38 c -3.02,-1.55 -6.29,-2.53 -9.49,-3.61 z m -192.45,2.17 5.29,-0.97 c 0.99,2.96 -2.5,2.71 -4.33,3.33 z m 7.14,-0.83 a 56.1,56.1 0 0 1 6.98,-0.26 l -0.46,2.28 c -2.35,-0.19 -5.5,0.83 -6.52,-2.02 z m 36.45,0.28 c 1.3,-0.99 2.71,0.43 2.27,1.81 -1.75,0.7 -3.93,2.18 -5.48,0.29 0.3,-1.48 2.05,-1.61 3.21,-2.1 z m 13.37,-0.86 5.09,0.86 -0.19,2.34 c -2.03,-0.58 -5.93,0.17 -4.9,-3.2 z m -64.48,2.78 5.42,-1.11 0.56,2.43 -5.03,0.79 z m 23.58,0.37 1.01,-2.17 5.09,1.93 c -1.19,3.06 -4.02,1.04 -6.1,0.24 z m 47.87,-1.78 c 2.07,0.68 6.4,-0.23 5.44,3.31 -2.21,-0.57 -5.94,0.11 -5.44,-3.31 z m -80.1,2.08 6.1,-0.59 0.3,2.41 c -2.22,-0.26 -6.25,1.76 -6.4,-1.82 z m 88.42,-0.81 6.12,0.76 c 0.33,3.76 -4.11,1.46 -6.22,1.63 z m -97.35,0.66 6.34,0.1 c 0.36,0.78 -0.02,1.62 -0.08,2.43 -2.16,-0.67 -6.57,1.1 -6.26,-2.53 z m 106.18,0.1 c 2.07,0.52 5.35,-0.93 6.53,1.25 -1.49,2.27 -4.72,1.04 -6.97,1.08 z m -74.72,1.98 c 1.84,-0.34 3.72,-0.31 5.58,-0.1 l -0.43,2.48 -4.28,-0.07 z m 43.95,-0.67 4.76,-0.2 0.11,2.57 -4.93,0.16 z m -51.45,1.45 5.1,-0.81 0.67,2.44 -5.16,0.99 z m 16.32,-0.49 5.71,2.29 -1.77,2.12 -4.91,-2.08 z m 25.68,1.67 c 2.04,-0.89 4.14,-1.66 6.3,-2.23 1.39,3.06 -2.15,3.29 -4.03,4.36 z m 16.57,0.23 0.94,-2.68 4.62,0.93 -0.13,2.4 z m -67.28,0 6.19,-0.79 0.71,2.36 -6.68,1 z"
       id="path6"
       style="stroke-width:2.34165" />
    <path
       d="m 271.26,292.19 6.47,1 -0.34,2.46 -6.49,-0.92 z m -84.18,1.98 6.57,-0.59 0.29,2.49 -6.53,0.54 z m 93.16,-0.76 5.95,0.71 0.1,2.43 -6.64,-0.52 z m -102.98,0.85 7.49,0.01 0.01,2.46 -7.49,0.2 z m 111.27,2.04 c 0.88,-3.05 4.49,-0.72 6.66,-1 l 0.08,2.44 c -2.19,-0.42 -5.21,0.52 -6.74,-1.44 z m 101.07,14.62 c -0.67,-3.83 1.92,-7.14 3.3,-10.5 l 13.23,5.92 c -1.26,2.93 -2.18,6.13 -4.23,8.63 -2.07,2.03 -4.98,0.47 -6.24,-1.63 -2.29,0.74 -5.24,0.13 -6.06,-2.42 m 4.48,-6.53 c -1.11,2.19 -2.85,5.47 0.5,6.54 a 93.1,93.1 0 0 0 2.82,-4.96 l -3.32,-1.58 m 5.44,2.77 c -0.43,1.79 -2.28,4.14 -0.33,5.64 1.81,-0.93 2.39,-3.02 3.3,-4.68 z m -11.95,4.56 c 3.82,3.55 6.96,7.73 10.5,11.54 l -1.83,3.26 -15.44,-2.65 c 0.88,-1.15 1.4,-3.19 3.3,-2.7 2.51,0.41 2.91,-2.78 4.12,-4.27 l -2.03,-2.14 1.38,-3.04 m 0.9,10.26 5.34,1.02 -3.46,-3.9 z m -11.26,7.17 2.31,-2.58 c 3.78,4.13 9.57,3.14 14.58,3.68 l -1.99,3.27 -6.54,-0.84 c 1.12,1.86 2.28,3.71 3.48,5.54 -0.76,0.87 -1.15,2.23 -2.33,2.63 -1.82,-2.74 -2.9,-5.91 -4.93,-8.5 -1.41,-1.23 -3.04,-2.16 -4.58,-3.2 z M 91.44,386.39 c 41.18,-19.04 86.2,-29.57 131.52,-31.21 53.84,-1.98 107.98,9.04 156.99,31.32 -1.97,4.86 -4.28,9.56 -6.47,14.32 9.25,3.75 17.93,8.74 26.33,14.1 -8.68,16.02 -16.85,32.33 -26.02,48.08 h -0.47 c -2.53,-1.78 -5.38,-3 -8.2,-4.2 -14.84,-6.49 -30.07,-12.24 -45.83,-16.06 -1.25,-0.46 -2.8,-0.5 -3.76,-1.48 1.3,-7.29 3.51,-14.38 5.18,-21.59 -55.36,-14.45 -114.19,-13.79 -169.72,-0.6 l 5.49,22.38 a 281.7,281.7 0 0 0 -48.61,16.65 c -3.17,1.47 -6.67,2.51 -9.29,4.9 H 97.3 l -0.05,-0.66 C 89.09,446.37 80.39,430.66 71.88,414.87 80.11,409.24 89,404.63 98.13,400.65 l -6.69,-14.26 m 11.35,3.92 c 4.23,10.2 9.37,20 14.09,29.98 39.58,-13.19 81.36,-20.14 123.12,-19.41 39.12,-0.02 78.11,7.39 114.88,20.62 l 14.11,-30.94 c -22.02,-8.91 -44.66,-16.51 -68.06,-20.87 a 339.5,339.5 0 0 0 -198.14,20.62 m -5.08,19.57 18.06,35.95 3.13,-1.35 c -5.28,-12.33 -11,-24.47 -16.88,-36.53 l -4.31,1.93 m 255.11,34.82 3.23,1.42 18.07,-35.99 -4.36,-2 -16.94,36.57 M 90.03,413.71 c 5.91,11.84 12.16,23.52 18.44,35.17 l 3.59,-1.75 -17.93,-35.53 -4.1,2.11 m 285.98,1.35 c -5.41,10.85 -11.15,21.56 -16.21,32.59 l 3.76,1.36 18.38,-34.95 c -1.34,-0.69 -2.65,-1.41 -4.03,-1.99 -0.9,0.79 -1.33,1.96 -1.9,2.99 m -292.95,2.83 18.2,34.17 3.25,-1.75 -18.02,-34.52 c -1.18,0.62 -2.47,1.13 -3.43,2.1 m 284.91,32.11 2.22,1.95 18.05,-33.94 -2.6,-1.75 c -6.01,11.18 -12.09,22.35 -17.67,33.74 M 116.85,430.11 c 1.74,4.46 3.84,8.77 5.86,13.12 l 3.35,-1.43 c -1.37,-3.55 -2.83,-7.07 -4.32,-10.57 l -4.89,-1.12 m 233.24,1.21 c -1.53,3.56 -3.09,7.11 -4.37,10.77 l 3.37,1.31 c 2.06,-4.35 4.17,-8.69 5.97,-13.16 l -4.97,1.08 m -223.44,0.97 c 0.77,2.83 1.91,5.54 3.07,8.24 l 3.49,-0.95 c -0.54,-2.18 -1.33,-4.29 -2.25,-6.33 l -4.31,-0.96 m 214.09,1.44 c -1.12,1.85 -1.59,4 -2.19,6.06 l 3.43,0.98 c 1.17,-2.73 2.32,-5.47 3.34,-8.26 -1.51,0.42 -3.23,0.36 -4.58,1.22 m -204.86,0.61 a 117.9,117.9 0 0 0 1.1,3.85 153.2,153.2 0 0 0 6.43,-1.87 c -2.34,-1.21 -5,-1.45 -7.53,-1.98 m 192.06,2.13 6.77,1.88 1.42,-3.69 c -2.79,0.33 -5.52,0.96 -8.19,1.81 z"
       id="path7"
       style="stroke-width:2.34165" />
    <path
       d="m 286.16,368.82 c 4.29,0.81 4.73,5.59 5.69,9.05 11.83,2.04 23.5,4.92 35.08,8.07 l 0.46,3.22 -3.33,-1 c -1.39,4.17 -2.5,8.43 -3.54,12.7 1.82,2.42 3.04,5.25 3.45,8.26 -1.6,-2.12 -2.5,-4.86 -4.93,-6.22 -1.52,-0.67 -1.29,-2.54 -0.17,-3.46 l -0.99,-1.46 1.07,-3.7 -4.12,-0.95 -1.83,1.68 c -1.67,0.23 -2.11,-2.02 -2.76,-3.16 -0.79,-1.26 1.01,-2 1.51,-2.98 a 22.4,22.4 0 0 0 1,-3.67 l -5.14,-1.04 c -0.98,4.34 -2.09,8.65 -3.12,12.98 -1.45,-1.31 -2.92,-2.73 -2.4,-4.88 -1.76,-0.21 -3.77,-0.02 -5.16,-1.31 -1.91,-1.5 -1.73,-4.22 -2.33,-6.34 1.71,-0.51 3.95,-0.4 4.78,-2.32 a 159.4,159.4 0 0 0 -7.49,-1.43 l -2.05,13.35 c -1.35,-1.31 -3.22,-2.49 -2.75,-4.67 -2.55,0.26 -4.95,-0.47 -6.67,-2.4 -1.67,3.51 -7.32,2.57 -8.96,-0.57 -1.42,-1.63 -0.08,-3.54 0.47,-5.21 -0.54,-1.6 -2.05,-3.43 -0.55,-4.97 2.16,-1.67 6.2,-0.33 6.12,2.7 0.01,1.38 -1.63,1.61 -2.48,2.35 1.62,0.01 2.6,0.87 2.96,2.56 -1.85,0.14 -4.24,-0.97 -5.45,1.04 1.58,2.94 5.08,1.27 7.32,0.23 l -0.66,-3.02 c 1.72,-0.42 3.54,-0.79 4.75,-2.22 -1.66,-0.43 -3.35,-0.74 -5.03,-1.03 l -1.34,-3.04 12.85,1.61 c -0.51,-2.32 -1.62,-4.39 -3.74,-5.58 l -0.52,-3.17 m -12.02,8.5 c -1.41,0.19 -1.81,2.48 -0.21,2.74 2.05,0.51 2.43,-3.31 0.21,-2.74 m 11.22,2.59 c 1.06,3.22 -2.01,4.22 -3.99,5.9 2.03,0.61 4.37,1.16 6.26,-0.18 0.58,-1.72 0.82,-3.52 1.16,-5.28 l -3.43,-0.44 m 15.89,2.65 c 0.39,3.14 -1.97,4.35 -4.61,4.92 1.37,1.3 3.35,2.21 5.21,1.36 2.35,-0.59 1.91,-3.63 2.82,-5.37 l -3.42,-0.91 m 13.8,8 4.85,0.79 1.02,-4.04 -5.06,-1.39 c -0.29,1.54 -0.57,3.08 -0.81,4.64 z M 204.82,375.59 c 17.95,-1.41 35.99,-1.57 53.98,-1.1 l 1.38,3.01 -3.4,-0.03 c -0.07,4.3 -0.28,8.59 -0.48,12.88 2.06,2.02 4.06,4.21 5.12,6.94 -2.43,-1.67 -4.01,-4.78 -7.32,-4.77 l -1.25,-2.35 1.8,-0.07 c -1.6,-1.37 -1.4,-3.48 -1.51,-5.36 l -3.77,-0.01 -1.67,2.37 c -1.26,-1.21 -3,-2.26 -3.41,-4.06 1.55,-1.65 1.57,-3.86 1.6,-5.98 l -3.15,-0.08 -0.02,13.35 -3.3,-1.98 0.15,-3.82 -4.12,-0.15 -1.46,2.72 a 33.5,33.5 0 0 1 -3.84,-4.06 c 1.91,-1.4 1.63,-3.73 1.69,-5.81 l -4.33,0.03 c -0.05,2.66 0.54,5.8 -2.04,7.52 -0.47,1.82 5.14,4.16 1.69,5.73 -2.51,-2.98 -6.24,-5.65 -6.55,-9.83 l 3.55,0.33 0.2,-3.51 -5.31,-0.08 c -0.09,4.54 0.37,9.06 0.49,13.6 -2.28,-0.8 -3.67,-2.38 -3.57,-4.83 -2.16,0.6 -4.61,0.83 -6.42,-0.77 -1.67,-1.88 -1.27,-4.6 -1.68,-6.89 -1.85,0.09 -2.35,-1.62 -3.05,-2.94 m 6.29,2.6 c 0.45,2.07 -0.23,4.76 1.11,6.45 1.24,-0.5 2.37,-1.26 3.53,-1.94 l -0.06,-5.07 -4.58,0.56 m 23.85,-1.23 0.12,4.67 4.42,-0.15 0.08,-4.39 -4.62,-0.13 m 14.08,0.23 -0.04,4.6 4.53,-0.06 v -4.45 z m -106.15,12.08 c 16.52,-6.98 34.24,-10.53 51.99,-12.54 l 1.58,2.55 -3.25,0.61 1.71,12.74 c 2.61,1.47 5.26,3.35 6.36,6.27 -2.19,-1.62 -4.27,-3.63 -7.13,-3.82 -1.38,-0.05 -1.43,-1.67 -1.6,-2.68 -1.21,-1.29 -1.39,-3.08 -1.77,-4.72 l -3.9,0.56 -0.97,2.76 a 17.6,17.6 0 0 1 -4.53,-3.66 c 2.1,-1.49 1.14,-3.87 0.87,-5.95 l -3.36,0.6 c 0.72,4.43 1.6,8.83 2.39,13.25 l -3.63,-1.71 -0.98,-5.51 c -2.57,0.17 -4.74,1.14 -5,4 -1.77,-0.81 -5.28,-2.69 -3.41,-4.88 2.55,-0.96 5.27,-1.37 7.92,-1.96 l -0.68,-2.73 -11.16,2.6 3.54,13 -3.75,-1.19 -2.95,-10.98 -2.47,0.92 4.02,12.68 -3.59,-0.94 c -0.83,-2.28 -1.58,-4.58 -2.31,-6.88 -0.66,0.61 -3.53,0.92 -2.08,2.32 1.52,1.43 1.18,3.24 0.7,5.05 0.76,1.01 2.47,1.61 1.83,3.26 -2.3,-1.18 -4.75,-2 -7.27,-2.59 l -0.47,-2.71 3.65,-0.5 c -0.6,-2.66 -3.18,-2.81 -5.46,-2.66 0.81,-3.83 6.56,-2.81 8.67,-5.91 -3.83,0.32 -7.33,2.01 -10.79,3.56 l -2.72,-2.21 m 42.48,-8.21 0.73,4.35 4.59,-0.77 -0.79,-4.47 z"
       id="path8"
       style="stroke-width:2.34165" />
  </g>
</svg>
